<?xml version="1.0" standalone="no"?>
<svg xmlns:xlink="http://www.w3.org/1999/xlink" id="wave" style="transform:rotate(180deg); transition: 0.3s" viewBox="0 0 1440 490" version="1.1" xmlns="http://www.w3.org/2000/svg"><defs><linearGradient id="sw-gradient-0" x1="0" x2="0" y1="1" y2="0"><stop stop-color="rgba(196.174, 77.578, 39.489, 1)" offset="0%"/><stop stop-color="rgba(191.62, 151.701, 63.459, 1)" offset="100%"/></linearGradient></defs><path style="transform:translate(0, 0px); opacity:1" fill="url(#sw-gradient-0)" d="M0,392L40,359.3C80,327,160,261,240,228.7C320,196,400,196,480,204.2C560,212,640,229,720,204.2C800,180,880,114,960,130.7C1040,147,1120,245,1200,285.8C1280,327,1360,310,1440,302.2C1520,294,1600,294,1680,318.5C1760,343,1840,392,1920,343C2000,294,2080,147,2160,89.8C2240,33,2320,65,2400,98C2480,131,2560,163,2640,220.5C2720,278,2800,359,2880,343C2960,327,3040,212,3120,147C3200,82,3280,65,3360,49C3440,33,3520,16,3600,49C3680,82,3760,163,3840,163.3C3920,163,4000,82,4080,81.7C4160,82,4240,163,4320,171.5C4400,180,4480,114,4560,138.8C4640,163,4720,278,4800,302.2C4880,327,4960,261,5040,253.2C5120,245,5200,294,5280,326.7C5360,359,5440,376,5520,375.7C5600,376,5680,359,5720,351.2L5760,343L5760,490L5720,490C5680,490,5600,490,5520,490C5440,490,5360,490,5280,490C5200,490,5120,490,5040,490C4960,490,4880,490,4800,490C4720,490,4640,490,4560,490C4480,490,4400,490,4320,490C4240,490,4160,490,4080,490C4000,490,3920,490,3840,490C3760,490,3680,490,3600,490C3520,490,3440,490,3360,490C3280,490,3200,490,3120,490C3040,490,2960,490,2880,490C2800,490,2720,490,2640,490C2560,490,2480,490,2400,490C2320,490,2240,490,2160,490C2080,490,2000,490,1920,490C1840,490,1760,490,1680,490C1600,490,1520,490,1440,490C1360,490,1280,490,1200,490C1120,490,1040,490,960,490C880,490,800,490,720,490C640,490,560,490,480,490C400,490,320,490,240,490C160,490,80,490,40,490L0,490Z"/></svg>